<?xml version="1.0" encoding="utf-8"?>
<!-- Generator: Adobe Illustrator 16.0.0, SVG Export Plug-In . SVG Version: 6.00 Build 0)  -->
<!DOCTYPE svg PUBLIC "-//W3C//DTD SVG 1.1//EN" "http://www.w3.org/Graphics/SVG/1.1/DTD/svg11.dtd">
<svg version="1.1" id="Layer_1" xmlns="http://www.w3.org/2000/svg" xmlns:xlink="http://www.w3.org/1999/xlink" x="0px" y="0px"
	 width="72px" height="72px" viewBox="0 0 72 72" enable-background="new 0 0 72 72" xml:space="preserve">
<path fill="#445963" d="M-735.692-126.783c-76.465,0-138.449,61.986-138.449,138.451c0,76.463,61.984,138.449,138.449,138.449
	s138.449-61.986,138.449-138.449C-597.243-64.797-659.228-126.783-735.692-126.783"/>
<g>
	<rect x="-817.423" y="-71.863" fill="#EFEFEF" width="45.518" height="91.035"/>
	<path fill="#EFEFEF" d="M-687.368-73.49c-26.037,0-47.145,21.107-47.145,47.145c0,26.035,21.107,47.143,47.145,47.143
		c26.035,0,47.143-21.107,47.143-47.143C-640.226-52.383-661.333-73.49-687.368-73.49"/>
	
		<rect x="-752.62" y="-89.718" transform="matrix(0.9753 0.2207 -0.2207 0.9753 -23.9843 164.778)" fill="#EFEFEF" width="6.724" height="129.588"/>
</g>
<text transform="matrix(1 0 0 1 -794.0869 116.3164)" fill="#15C2D8" font-family="'ProductSans-Regular'" font-size="53.5" letter-spacing="-1">Natal</text>
<text transform="matrix(1 0 0 1 -822.7632 70.7383)"><tspan x="0" y="0" fill="#B0BEC5" font-family="'ProductSans-Regular'" font-size="43.9205" letter-spacing="-1">E</tspan><tspan x="22.531" y="0" fill="#B0BEC5" font-family="'ProductSans-Regular'" font-size="43.9205">x</tspan><tspan x="42.426" y="0" fill="#B0BEC5" font-family="'ProductSans-Regular'" font-size="43.9205" letter-spacing="-1">t</tspan><tspan x="56.919" y="0" fill="#B0BEC5" font-family="'ProductSans-Regular'" font-size="43.9205">e</tspan><tspan x="79.582" y="0" fill="#B0BEC5" font-family="'ProductSans-Regular'" font-size="43.9205">n</tspan><tspan x="102.552" y="0" fill="#B0BEC5" font-family="'ProductSans-Regular'" font-size="43.9205" letter-spacing="-1">d</tspan><tspan x="126.795" y="0" fill="#B0BEC5" font-family="'ProductSans-Regular'" font-size="43.9205">e</tspan><tspan x="149.678" y="0" fill="#B0BEC5" font-family="'ProductSans-Regular'" font-size="43.9205">d</tspan></text>
<path fill="#445963" d="M-305.422-123.331c-132.247,0-239.449,107.206-239.449,239.452c0,132.244,107.202,239.449,239.449,239.449
	S-65.973,248.365-65.973,116.121C-65.973-16.125-173.175-123.331-305.422-123.331"/>
<g>
	<rect x="-446.775" y="-28.347" fill="#EFEFEF" width="78.723" height="157.446"/>
	<path fill="#EFEFEF" d="M-221.845-31.16c-45.031,0-81.537,36.505-81.537,81.537c0,45.027,36.506,81.533,81.537,81.533
		c45.028,0,81.533-36.506,81.533-81.533C-140.312,5.345-176.816-31.16-221.845-31.16"/>
	
		<rect x="-334.699" y="-59.226" transform="matrix(0.9753 0.2207 -0.2207 0.9753 3.5503 73.902)" fill="#EFEFEF" width="11.631" height="224.124"/>
</g>
<text transform="matrix(1 0 0 1 -406.417 297.1113)" fill="#15C2D8" font-family="'ProductSans-Regular'" font-size="92.5287" letter-spacing="-1">Natal</text>
<text transform="matrix(1 0 0 1 -456.0117 218.2842)"><tspan x="0" y="0" fill="#B0BEC5" font-family="'ProductSans-Regular'" font-size="75.961" letter-spacing="-2">E</tspan><tspan x="38.968" y="0" fill="#B0BEC5" font-family="'ProductSans-Regular'" font-size="75.961" letter-spacing="-1">x</tspan><tspan x="73.377" y="0" fill="#B0BEC5" font-family="'ProductSans-Regular'" font-size="75.961" letter-spacing="-1">t</tspan><tspan x="98.442" y="0" fill="#B0BEC5" font-family="'ProductSans-Regular'" font-size="75.961" letter-spacing="-1">e</tspan><tspan x="137.639" y="0" fill="#B0BEC5" font-family="'ProductSans-Regular'" font-size="75.961" letter-spacing="-1">n</tspan><tspan x="177.365" y="0" fill="#B0BEC5" font-family="'ProductSans-Regular'" font-size="75.961" letter-spacing="-1">d</tspan><tspan x="219.295" y="0" fill="#B0BEC5" font-family="'ProductSans-Regular'" font-size="75.961" letter-spacing="-1">e</tspan><tspan x="258.87" y="0" fill="#B0BEC5" font-family="'ProductSans-Regular'" font-size="75.961" letter-spacing="-1">d</tspan></text>
<rect x="-766.757" y="588.49" fill="#445963" width="62.888" height="125.775"/>
<path fill="#445963" d="M-587.077,586.244c-35.973,0-65.134,29.162-65.134,65.134c0,35.973,29.161,65.134,65.134,65.134
	s65.133-29.161,65.133-65.134C-521.944,615.406-551.104,586.244-587.077,586.244"/>
<rect x="-677.226" y="563.824" transform="matrix(0.9754 0.2206 -0.2206 0.9754 127.5369 164.4323)" fill="#445963" width="9.289" height="179.038"/>
<polygon fill="#B0BEC5" points="-444.031,595.161 -472.505,595.161 -472.505,614.986 -446.826,614.986 -446.826,622.498 
	-472.505,622.498 -472.505,642.323 -444.031,642.323 -444.031,650.01 -480.539,650.01 -480.539,587.475 -444.031,587.475 "/>
<polygon fill="#B0BEC5" points="-401.586,650.009 -411.019,650.009 -421.586,634.2 -431.979,650.009 -441.412,650.009 
	-426.302,628.262 -441.063,607.213 -431.979,607.213 -421.412,622.322 -411.368,607.213 -401.935,607.213 -416.87,628.262 "/>
<path fill="#B0BEC5" d="M-379.228,650.708c-4.485,0-7.904-1.192-10.263-3.581c-2.358-2.387-3.537-5.764-3.537-10.131v-22.447h-7.511
	v-7.336h7.511v-13.101h8.035v13.101h10.48v7.336h-10.48v21.835c0,4.659,1.921,6.987,5.765,6.987c1.455,0,2.676-0.231,3.668-0.698
	l2.794,6.899C-374.512,650.328-376.666,650.708-379.228,650.708"/>
<path fill="#B0BEC5" d="M-349.621,651.406c-6.463,0-11.718-2.152-15.765-6.463c-4.047-4.309-6.07-9.751-6.07-16.332
	c0-6.23,1.965-11.586,5.896-16.07c3.931-4.483,8.953-6.726,15.066-6.726c6.345,0,11.427,2.067,15.24,6.201
	c3.813,4.136,5.722,9.666,5.722,16.595l-0.089,1.484h-33.8c0.232,4.311,1.674,7.716,4.324,10.219
	c2.648,2.504,5.749,3.755,9.301,3.755c5.766,0,9.664-2.445,11.704-7.335l7.161,2.969c-1.397,3.318-3.697,6.1-6.9,8.341
	C-341.034,650.284-344.963,651.406-349.621,651.406 M-338.092,623.458c-0.175-2.445-1.297-4.773-3.362-6.986
	c-2.068-2.213-5.14-3.319-9.215-3.319c-2.97,0-5.546,0.932-7.729,2.796c-2.183,1.863-3.683,4.365-4.497,7.51H-338.092z"/>
<path fill="#B0BEC5" d="M-316.259,607.213v5.939h0.35c1.164-2.038,2.998-3.77,5.502-5.197c2.502-1.426,5.182-2.14,8.035-2.14
	c5.298,0,9.346,1.631,12.14,4.892c2.795,3.262,4.192,7.629,4.192,13.1v26.202h-8.034V625.03c0-7.918-3.524-11.878-10.569-11.878
	c-3.317,0-6.025,1.324-8.121,3.974c-2.097,2.65-3.145,5.721-3.145,9.215v23.668h-8.035v-42.796H-316.259z"/>
<path fill="#B0BEC5" d="M-260.45,651.406c-5.531,0-10.305-2.183-14.322-6.55c-4.02-4.368-6.027-9.782-6.027-16.245
	s2.008-11.878,6.027-16.246c4.018-4.365,8.791-6.55,14.322-6.55c3.262,0,6.187,0.699,8.778,2.097c2.59,1.396,4.526,3.145,5.808,5.24
	h0.35l-0.35-5.939v-19.738h8.036v62.534h-7.687v-5.939h-0.35c-1.281,2.097-3.218,3.844-5.808,5.241
	C-254.264,650.708-257.188,651.406-260.45,651.406 M-259.139,644.069c3.784,0,7-1.396,9.649-4.192
	c2.648-2.794,3.975-6.55,3.975-11.266c0-4.717-1.326-8.473-3.975-11.267c-2.649-2.796-5.865-4.192-9.649-4.192
	c-3.728,0-6.931,1.412-9.608,4.235c-2.679,2.825-4.017,6.565-4.017,11.224c0,4.659,1.338,8.399,4.017,11.223
	C-266.069,642.658-262.866,644.069-259.139,644.069"/>
<path fill="#B0BEC5" d="M-210.841,651.406c-6.463,0-11.719-2.152-15.765-6.463c-4.048-4.309-6.07-9.751-6.07-16.332
	c0-6.23,1.966-11.586,5.896-16.07c3.93-4.483,8.952-6.726,15.065-6.726c6.347,0,11.427,2.067,15.241,6.201
	c3.812,4.136,5.721,9.666,5.721,16.595l-0.087,1.484h-33.8c0.231,4.311,1.672,7.716,4.322,10.219
	c2.649,2.504,5.75,3.755,9.303,3.755c5.764,0,9.664-2.445,11.703-7.335l7.161,2.969c-1.397,3.318-3.698,6.1-6.9,8.341
	C-202.253,650.284-206.183,651.406-210.841,651.406 M-199.312,623.458c-0.176-2.445-1.297-4.773-3.363-6.986
	c-2.067-2.213-5.139-3.319-9.214-3.319c-2.97,0-5.546,0.932-7.729,2.796c-2.184,1.863-3.684,4.365-4.498,7.51H-199.312z"/>
<path fill="#B0BEC5" d="M-166.825,651.406c-5.531,0-10.305-2.183-14.322-6.55c-4.019-4.368-6.026-9.782-6.026-16.245
	s2.008-11.878,6.026-16.246c4.018-4.365,8.791-6.55,14.322-6.55c3.262,0,6.188,0.699,8.779,2.097c2.59,1.396,4.525,3.145,5.808,5.24
	h0.349l-0.349-5.939v-19.738h8.035v62.534h-7.687v-5.939h-0.349c-1.282,2.097-3.218,3.844-5.808,5.241
	C-160.638,650.708-163.563,651.406-166.825,651.406 M-165.514,644.069c3.784,0,7.001-1.396,9.65-4.192
	c2.648-2.794,3.974-6.55,3.974-11.266c0-4.717-1.325-8.473-3.974-11.267c-2.649-2.796-5.866-4.192-9.65-4.192
	c-3.727,0-6.931,1.412-9.607,4.235c-2.68,2.825-4.018,6.565-4.018,11.224c0,4.659,1.338,8.399,4.018,11.223
	C-172.444,642.658-169.24,644.069-165.514,644.069"/>
<g>
	
		<text transform="matrix(1 0 0 1 -485.9248 728.8604)" fill="#15C2D8" font-family="'ProductSans-Regular'" font-size="92.5287" letter-spacing="-1">Natal</text>
</g>
<path fill="#445963" d="M35.291,238.86c-34.083,0-61.71,27.629-61.71,61.71s27.627,61.709,61.71,61.709
	c34.081,0,61.708-27.628,61.708-61.709S69.372,238.86,35.291,238.86"/>
<g>
	<rect x="-1.139" y="263.339" fill="#EFEFEF" width="20.288" height="40.576"/>
	<path fill="#EFEFEF" d="M56.829,262.614c-11.605,0-21.014,9.408-21.014,21.013s9.408,21.013,21.014,21.013
		c11.604,0,21.012-9.408,21.012-21.013S68.434,262.614,56.829,262.614"/>
	
		<rect x="27.745" y="255.381" transform="matrix(0.9754 0.2206 -0.2206 0.9754 63.4141 0.55)" fill="#EFEFEF" width="2.998" height="57.76"/>
</g>
<text transform="matrix(1 0 0 1 9.2627 347.2139)" fill="#15C2D8" font-family="'ProductSans-Regular'" font-size="23.8457">Natal</text>
<text transform="matrix(1 0 0 1 -3.5186 326.8975)"><tspan x="0" y="0" fill="#B0BEC5" font-family="'ProductSans-Regular'" font-size="19.576">E</tspan><tspan x="10.042" y="0" fill="#B0BEC5" font-family="'ProductSans-Regular'" font-size="19.576">x</tspan><tspan x="18.91" y="0" fill="#B0BEC5" font-family="'ProductSans-Regular'" font-size="19.576">t</tspan><tspan x="25.37" y="0" fill="#B0BEC5" font-family="'ProductSans-Regular'" font-size="19.576">e</tspan><tspan x="35.471" y="0" fill="#B0BEC5" font-family="'ProductSans-Regular'" font-size="19.576">n</tspan><tspan x="45.709" y="0" fill="#B0BEC5" font-family="'ProductSans-Regular'" font-size="19.576">d</tspan><tspan x="56.515" y="0" fill="#B0BEC5" font-family="'ProductSans-Regular'" font-size="19.576">e</tspan><tspan x="66.714" y="0" fill="#B0BEC5" font-family="'ProductSans-Regular'" font-size="19.576">d</tspan></text>
<path fill="#445963" d="M36.902,108.907c-22.28,0-40.341,18.062-40.341,40.342c0,22.278,18.061,40.34,40.341,40.34
	c22.279,0,40.34-18.062,40.34-40.34C77.242,126.969,59.182,108.907,36.902,108.907"/>
<g>
	<rect x="13.088" y="124.909" fill="#EFEFEF" width="13.263" height="26.525"/>
	<path fill="#EFEFEF" d="M50.982,124.436c-7.587,0-13.737,6.15-13.737,13.736s6.15,13.736,13.737,13.736
		c7.586,0,13.735-6.15,13.735-13.736S58.568,124.436,50.982,124.436"/>
	
		<rect x="31.97" y="119.707" transform="matrix(0.9754 0.2203 -0.2203 0.9754 31.3411 -3.854)" fill="#EFEFEF" width="1.959" height="37.76"/>
</g>
<text transform="matrix(1 0 0 1 19.8877 179.7402)" fill="#15C2D8" font-family="'ProductSans-Regular'" font-size="15.5885">Natal</text>
<text transform="matrix(1 0 0 1 11.5322 166.459)"><tspan x="0" y="0" fill="#B0BEC5" font-family="'ProductSans-Regular'" font-size="12.7973">E</tspan><tspan x="6.564" y="0" fill="#B0BEC5" font-family="'ProductSans-Regular'" font-size="12.7973">x</tspan><tspan x="12.362" y="0" fill="#B0BEC5" font-family="'ProductSans-Regular'" font-size="12.7973">t</tspan><tspan x="16.585" y="0" fill="#B0BEC5" font-family="'ProductSans-Regular'" font-size="12.7973">e</tspan><tspan x="23.188" y="0" fill="#B0BEC5" font-family="'ProductSans-Regular'" font-size="12.7973">n</tspan><tspan x="29.881" y="0" fill="#B0BEC5" font-family="'ProductSans-Regular'" font-size="12.7973">d</tspan><tspan x="36.945" y="0" fill="#B0BEC5" font-family="'ProductSans-Regular'" font-size="12.7973">e</tspan><tspan x="43.612" y="0" fill="#B0BEC5" font-family="'ProductSans-Regular'" font-size="12.7973">d</tspan></text>
<path fill="#445963" d="M36.402,4.407c-17.033,0-30.841,13.808-30.841,30.842c0,17.031,13.808,30.84,30.841,30.84
	c17.032,0,30.84-13.809,30.84-30.84C67.242,18.215,53.435,4.407,36.402,4.407"/>
<g>
	<rect x="18.196" y="16.641" fill="#EFEFEF" width="10.139" height="20.279"/>
	<path fill="#EFEFEF" d="M47.167,16.278c-5.801,0-10.503,4.702-10.503,10.502s4.702,10.501,10.503,10.501
		c5.799,0,10.5-4.701,10.5-10.501S52.966,16.278,47.167,16.278"/>
	
		<rect x="32.631" y="12.663" transform="matrix(0.9754 0.2204 -0.2204 0.9754 6.7923 -6.6901)" fill="#EFEFEF" width="1.498" height="28.867"/>
</g>
<g>
	<path fill="#15C2D8" d="M24.253,58.56v-8.533h1.334l4.147,6.639h0.048l-0.048-1.645v-4.994h1.097v8.533h-1.145l-4.338-6.96h-0.047
		l0.047,1.645v5.315H24.253z"/>
	<path fill="#15C2D8" d="M33.978,58.75c-0.62,0-1.139-0.179-1.556-0.536s-0.625-0.83-0.625-1.418c0-0.636,0.246-1.134,0.738-1.496
		c0.493-0.361,1.101-0.542,1.823-0.542c0.644,0,1.172,0.119,1.585,0.357v-0.167c0-0.429-0.146-0.772-0.44-1.03
		c-0.294-0.259-0.655-0.388-1.085-0.388c-0.317,0-0.605,0.076-0.863,0.227c-0.259,0.151-0.436,0.357-0.53,0.62l-1.001-0.43
		c0.135-0.35,0.4-0.673,0.798-0.971s0.922-0.447,1.573-0.447c0.747,0,1.366,0.219,1.859,0.655c0.492,0.438,0.738,1.053,0.738,1.848
		v3.527h-1.049v-0.811h-0.047C35.459,58.417,34.819,58.75,33.978,58.75z M34.156,57.749c0.453,0,0.864-0.169,1.233-0.506
		c0.369-0.338,0.554-0.737,0.554-1.198c-0.31-0.254-0.774-0.381-1.394-0.381c-0.532,0-0.934,0.115-1.204,0.345
		c-0.271,0.231-0.405,0.501-0.405,0.811c0,0.286,0.123,0.513,0.37,0.68C33.557,57.666,33.838,57.749,34.156,57.749z"/>
	<path fill="#15C2D8" d="M40.532,58.655c-0.612,0-1.079-0.163-1.4-0.489c-0.322-0.325-0.483-0.786-0.483-1.382v-3.063h-1.024V52.72
		h1.024v-1.787h1.097v1.787h1.431v1.001h-1.431V56.7c0,0.636,0.263,0.954,0.787,0.954c0.198,0,0.365-0.032,0.5-0.096l0.382,0.941
		C41.176,58.604,40.881,58.655,40.532,58.655z"/>
	<path fill="#15C2D8" d="M43.845,58.75c-0.62,0-1.139-0.179-1.556-0.536s-0.625-0.83-0.625-1.418c0-0.636,0.246-1.134,0.738-1.496
		c0.493-0.361,1.101-0.542,1.823-0.542c0.644,0,1.172,0.119,1.585,0.357v-0.167c0-0.429-0.146-0.772-0.44-1.03
		c-0.294-0.259-0.655-0.388-1.085-0.388c-0.317,0-0.605,0.076-0.863,0.227c-0.259,0.151-0.436,0.357-0.53,0.62l-1.001-0.43
		c0.135-0.35,0.4-0.673,0.798-0.971s0.922-0.447,1.573-0.447c0.747,0,1.366,0.219,1.859,0.655c0.492,0.438,0.738,1.053,0.738,1.848
		v3.527h-1.049v-0.811h-0.047C45.326,58.417,44.687,58.75,43.845,58.75z M44.023,57.749c0.453,0,0.864-0.169,1.233-0.506
		c0.369-0.338,0.554-0.737,0.554-1.198c-0.31-0.254-0.774-0.381-1.394-0.381c-0.532,0-0.934,0.115-1.204,0.345
		c-0.271,0.231-0.405,0.501-0.405,0.811c0,0.286,0.123,0.513,0.37,0.68C43.424,57.666,43.705,57.749,44.023,57.749z"/>
	<path fill="#15C2D8" d="M48.969,58.56h-1.097v-8.533h1.097V58.56z"/>
</g>
<g>
	<path fill="#B0BEC5" d="M21.801,42.262h-3.189v2.222h2.876v0.841h-2.876v2.221h3.189v0.861h-4.09v-7.005h4.09V42.262z"/>
	<path fill="#B0BEC5" d="M26.565,48.406h-1.057l-1.185-1.771l-1.164,1.771h-1.057l1.692-2.437l-1.653-2.357h1.018l1.184,1.692
		l1.125-1.692h1.057l-1.673,2.357L26.565,48.406z"/>
	<path fill="#B0BEC5" d="M29.079,48.484c-0.502,0-0.886-0.134-1.149-0.401c-0.265-0.267-0.396-0.646-0.396-1.135v-2.514h-0.842
		v-0.822h0.842v-1.468h0.9v1.468h1.174v0.822h-1.174v2.445c0,0.522,0.215,0.783,0.646,0.783c0.163,0,0.3-0.026,0.411-0.079
		l0.312,0.773C29.607,48.442,29.366,48.484,29.079,48.484z"/>
	<path fill="#B0BEC5" d="M32.405,48.562c-0.724,0-1.312-0.241-1.766-0.724s-0.68-1.093-0.68-1.829c0-0.698,0.22-1.298,0.66-1.801
		c0.44-0.502,1.003-0.753,1.688-0.753c0.711,0,1.28,0.231,1.707,0.694s0.641,1.083,0.641,1.859l-0.01,0.166h-3.786
		c0.026,0.482,0.188,0.864,0.484,1.145s0.645,0.421,1.042,0.421c0.646,0,1.083-0.274,1.312-0.822l0.802,0.333
		c-0.156,0.372-0.414,0.684-0.772,0.935C33.367,48.438,32.927,48.562,32.405,48.562z M33.697,45.432
		c-0.021-0.273-0.146-0.534-0.377-0.782s-0.576-0.372-1.032-0.372c-0.333,0-0.621,0.104-0.866,0.313
		c-0.244,0.209-0.412,0.489-0.504,0.841H33.697z"/>
	<path fill="#B0BEC5" d="M36.144,43.612v0.665h0.039c0.13-0.228,0.336-0.422,0.616-0.582c0.28-0.159,0.58-0.239,0.9-0.239
		c0.593,0,1.047,0.183,1.359,0.548c0.313,0.365,0.47,0.854,0.47,1.467v2.936h-0.9v-2.798c0-0.887-0.395-1.331-1.184-1.331
		c-0.372,0-0.675,0.148-0.91,0.445c-0.234,0.297-0.352,0.641-0.352,1.032v2.651h-0.9v-4.794H36.144z"/>
	<path fill="#B0BEC5" d="M42.404,48.562c-0.62,0-1.154-0.244-1.604-0.733s-0.675-1.096-0.675-1.819c0-0.725,0.225-1.331,0.675-1.82
		s0.984-0.733,1.604-0.733c0.365,0,0.692,0.078,0.983,0.234c0.29,0.156,0.507,0.353,0.65,0.587h0.039l-0.039-0.665v-2.211h0.9v7.005
		h-0.861v-0.665h-0.039c-0.144,0.234-0.36,0.431-0.65,0.587C43.097,48.484,42.77,48.562,42.404,48.562z M42.551,47.741
		c0.424,0,0.784-0.157,1.081-0.47c0.297-0.313,0.445-0.734,0.445-1.262c0-0.528-0.148-0.949-0.445-1.263
		c-0.297-0.312-0.657-0.47-1.081-0.47c-0.417,0-0.776,0.158-1.076,0.475s-0.45,0.735-0.45,1.258c0,0.521,0.15,0.94,0.45,1.257
		S42.134,47.741,42.551,47.741z"/>
	<path fill="#B0BEC5" d="M47.971,48.562c-0.724,0-1.312-0.241-1.766-0.724s-0.68-1.093-0.68-1.829c0-0.698,0.22-1.298,0.66-1.801
		c0.44-0.502,1.003-0.753,1.688-0.753c0.711,0,1.28,0.231,1.707,0.694s0.641,1.083,0.641,1.859l-0.01,0.166h-3.786
		c0.026,0.482,0.188,0.864,0.484,1.145s0.645,0.421,1.042,0.421c0.646,0,1.083-0.274,1.312-0.822l0.802,0.333
		c-0.156,0.372-0.414,0.684-0.772,0.935C48.933,48.438,48.492,48.562,47.971,48.562z M49.263,45.432
		c-0.021-0.273-0.146-0.534-0.377-0.782s-0.576-0.372-1.032-0.372c-0.333,0-0.621,0.104-0.866,0.313
		c-0.244,0.209-0.412,0.489-0.504,0.841H49.263z"/>
	<path fill="#B0BEC5" d="M52.902,48.562c-0.62,0-1.154-0.244-1.604-0.733s-0.675-1.096-0.675-1.819c0-0.725,0.225-1.331,0.675-1.82
		s0.984-0.733,1.604-0.733c0.365,0,0.692,0.078,0.983,0.234c0.29,0.156,0.507,0.353,0.65,0.587h0.039l-0.039-0.665v-2.211h0.9v7.005
		h-0.861v-0.665h-0.039c-0.144,0.234-0.36,0.431-0.65,0.587C53.595,48.484,53.268,48.562,52.902,48.562z M53.049,47.741
		c0.424,0,0.784-0.157,1.081-0.47c0.297-0.313,0.445-0.734,0.445-1.262c0-0.528-0.148-0.949-0.445-1.263
		c-0.297-0.312-0.657-0.47-1.081-0.47c-0.417,0-0.776,0.158-1.076,0.475s-0.45,0.735-0.45,1.258c0,0.521,0.15,0.94,0.45,1.257
		S52.632,47.741,53.049,47.741z"/>
</g>
<path fill="#445963" d="M36.275-73.593c-11.019,0-19.95,8.932-19.95,19.951c0,11.017,8.932,19.949,19.95,19.949
	c11.018,0,19.949-8.932,19.949-19.949C56.225-64.661,47.293-73.593,36.275-73.593"/>
<g>
	<rect x="24.498" y="-65.679" fill="#EFEFEF" width="6.559" height="13.118"/>
	<path fill="#EFEFEF" d="M43.238-65.914c-3.752,0-6.794,3.042-6.794,6.793c0,3.751,3.042,6.792,6.794,6.792
		c3.751,0,6.792-3.041,6.792-6.792C50.03-62.872,46.989-65.914,43.238-65.914"/>
	
		<rect x="33.835" y="-68.252" transform="matrix(0.9755 0.2202 -0.2202 0.9755 -12.13 -9.0025)" fill="#EFEFEF" width="0.969" height="18.674"/>
</g>
<text transform="matrix(1 0 0 1 27.8604 -38.5635)" fill="#15C2D8" font-family="'ProductSans-Regular'" font-size="7.709">Natal</text>
<text transform="matrix(1 0 0 1 23.7295 -45.1309)"><tspan x="0" y="0" fill="#B0BEC5" font-family="'ProductSans-Regular'" font-size="6.3287">E</tspan><tspan x="3.246" y="0" fill="#B0BEC5" font-family="'ProductSans-Regular'" font-size="6.3287">x</tspan><tspan x="6.113" y="0" fill="#B0BEC5" font-family="'ProductSans-Regular'" font-size="6.3287">t</tspan><tspan x="8.202" y="0" fill="#B0BEC5" font-family="'ProductSans-Regular'" font-size="6.3287">e</tspan><tspan x="11.468" y="0" fill="#B0BEC5" font-family="'ProductSans-Regular'" font-size="6.3287">n</tspan><tspan x="14.777" y="0" fill="#B0BEC5" font-family="'ProductSans-Regular'" font-size="6.3287">d</tspan><tspan x="18.271" y="0" fill="#B0BEC5" font-family="'ProductSans-Regular'" font-size="6.3287">e</tspan><tspan x="21.567" y="0" fill="#B0BEC5" font-family="'ProductSans-Regular'" font-size="6.3287">d</tspan></text>
</svg>
